G04 #@! TF.GenerationSoftware,KiCad,Pcbnew,(5.1.5)-2*
G04 #@! TF.CreationDate,2019-12-23T23:59:59+01:00*
G04 #@! TF.ProjectId,Benjolin Panel,42656e6a-6f6c-4696-9e20-50616e656c2e,rev?*
G04 #@! TF.SameCoordinates,Original*
G04 #@! TF.FileFunction,Copper,L2,Bot*
G04 #@! TF.FilePolarity,Positive*
%FSLAX46Y46*%
G04 Gerber Fmt 4.6, Leading zero omitted, Abs format (unit mm)*
G04 Created by KiCad (PCBNEW (5.1.5)-2) date 2019-12-23 23:59:59*
%MOMM*%
%LPD*%
G04 APERTURE LIST*
%ADD10C,9.300000*%
%ADD11C,7.500000*%
%ADD12C,9.700000*%
%ADD13C,8.600000*%
%ADD14C,0.100000*%
G04 APERTURE END LIST*
D10*
X75296800Y-45879500D03*
X75275700Y-69851700D03*
X75275700Y-93485400D03*
D11*
X109171100Y-117394200D03*
D12*
X75254500Y-117394200D03*
X96476200Y-117415300D03*
X119221300Y-93316200D03*
X96476200Y-93295000D03*
X119221300Y-69745900D03*
X96497400Y-69767100D03*
X119221300Y-45731400D03*
X96476200Y-45710200D03*
D13*
X52784500Y-45921800D03*
X52763400Y-69872900D03*
X52784500Y-93570100D03*
X120448400Y-117563500D03*
X52805700Y-117542300D03*
X121252500Y-138044600D03*
X109805900Y-138044600D03*
X98425000Y-138049000D03*
X86995000Y-138049000D03*
X75565000Y-137922000D03*
X64135000Y-137922000D03*
X52705000Y-137922000D03*
G04 #@! TA.AperFunction,WasherPad*
D14*
G36*
X120761845Y-28781519D02*
G01*
X121014235Y-28818957D01*
X121261740Y-28880954D01*
X121501977Y-28966912D01*
X121732632Y-29076004D01*
X121951483Y-29207178D01*
X122156423Y-29359172D01*
X122345478Y-29530521D01*
X122516827Y-29719576D01*
X122668821Y-29924516D01*
X122799995Y-30143367D01*
X122909087Y-30374022D01*
X122995045Y-30614259D01*
X123057042Y-30861764D01*
X123094480Y-31114154D01*
X123107000Y-31368999D01*
X123107000Y-31369001D01*
X123094480Y-31623846D01*
X123057042Y-31876236D01*
X122995045Y-32123741D01*
X122909087Y-32363978D01*
X122799995Y-32594633D01*
X122668821Y-32813484D01*
X122516827Y-33018424D01*
X122345478Y-33207479D01*
X122156423Y-33378828D01*
X121951483Y-33530822D01*
X121732632Y-33661996D01*
X121501977Y-33771088D01*
X121261740Y-33857046D01*
X121014235Y-33919043D01*
X120761845Y-33956481D01*
X120507000Y-33969001D01*
X118507000Y-33969001D01*
X118252155Y-33956481D01*
X117999765Y-33919043D01*
X117752260Y-33857046D01*
X117512023Y-33771088D01*
X117281368Y-33661996D01*
X117062517Y-33530822D01*
X116857577Y-33378828D01*
X116668522Y-33207479D01*
X116497173Y-33018424D01*
X116345179Y-32813484D01*
X116214005Y-32594633D01*
X116104913Y-32363978D01*
X116018955Y-32123741D01*
X115956958Y-31876236D01*
X115919520Y-31623846D01*
X115907000Y-31369001D01*
X115907000Y-31368999D01*
X115919520Y-31114154D01*
X115956958Y-30861764D01*
X116018955Y-30614259D01*
X116104913Y-30374022D01*
X116214005Y-30143367D01*
X116345179Y-29924516D01*
X116497173Y-29719576D01*
X116668522Y-29530521D01*
X116857577Y-29359172D01*
X117062517Y-29207178D01*
X117281368Y-29076004D01*
X117512023Y-28966912D01*
X117752260Y-28880954D01*
X117999765Y-28818957D01*
X118252155Y-28781519D01*
X118507000Y-28768999D01*
X120507000Y-28768999D01*
X120761845Y-28781519D01*
G37*
G04 #@! TD.AperFunction*
G04 #@! TA.AperFunction,WasherPad*
G36*
X55610845Y-28781519D02*
G01*
X55863235Y-28818957D01*
X56110740Y-28880954D01*
X56350977Y-28966912D01*
X56581632Y-29076004D01*
X56800483Y-29207178D01*
X57005423Y-29359172D01*
X57194478Y-29530521D01*
X57365827Y-29719576D01*
X57517821Y-29924516D01*
X57648995Y-30143367D01*
X57758087Y-30374022D01*
X57844045Y-30614259D01*
X57906042Y-30861764D01*
X57943480Y-31114154D01*
X57956000Y-31368999D01*
X57956000Y-31369001D01*
X57943480Y-31623846D01*
X57906042Y-31876236D01*
X57844045Y-32123741D01*
X57758087Y-32363978D01*
X57648995Y-32594633D01*
X57517821Y-32813484D01*
X57365827Y-33018424D01*
X57194478Y-33207479D01*
X57005423Y-33378828D01*
X56800483Y-33530822D01*
X56581632Y-33661996D01*
X56350977Y-33771088D01*
X56110740Y-33857046D01*
X55863235Y-33919043D01*
X55610845Y-33956481D01*
X55356000Y-33969001D01*
X53356000Y-33969001D01*
X53101155Y-33956481D01*
X52848765Y-33919043D01*
X52601260Y-33857046D01*
X52361023Y-33771088D01*
X52130368Y-33661996D01*
X51911517Y-33530822D01*
X51706577Y-33378828D01*
X51517522Y-33207479D01*
X51346173Y-33018424D01*
X51194179Y-32813484D01*
X51063005Y-32594633D01*
X50953913Y-32363978D01*
X50867955Y-32123741D01*
X50805958Y-31876236D01*
X50768520Y-31623846D01*
X50756000Y-31369001D01*
X50756000Y-31368999D01*
X50768520Y-31114154D01*
X50805958Y-30861764D01*
X50867955Y-30614259D01*
X50953913Y-30374022D01*
X51063005Y-30143367D01*
X51194179Y-29924516D01*
X51346173Y-29719576D01*
X51517522Y-29530521D01*
X51706577Y-29359172D01*
X51911517Y-29207178D01*
X52130368Y-29076004D01*
X52361023Y-28966912D01*
X52601260Y-28880954D01*
X52848765Y-28818957D01*
X53101155Y-28781519D01*
X53356000Y-28768999D01*
X55356000Y-28768999D01*
X55610845Y-28781519D01*
G37*
G04 #@! TD.AperFunction*
G04 #@! TA.AperFunction,WasherPad*
G36*
X120761845Y-151336519D02*
G01*
X121014235Y-151373957D01*
X121261740Y-151435954D01*
X121501977Y-151521912D01*
X121732632Y-151631004D01*
X121951483Y-151762178D01*
X122156423Y-151914172D01*
X122345478Y-152085521D01*
X122516827Y-152274576D01*
X122668821Y-152479516D01*
X122799995Y-152698367D01*
X122909087Y-152929022D01*
X122995045Y-153169259D01*
X123057042Y-153416764D01*
X123094480Y-153669154D01*
X123107000Y-153923999D01*
X123107000Y-153924001D01*
X123094480Y-154178846D01*
X123057042Y-154431236D01*
X122995045Y-154678741D01*
X122909087Y-154918978D01*
X122799995Y-155149633D01*
X122668821Y-155368484D01*
X122516827Y-155573424D01*
X122345478Y-155762479D01*
X122156423Y-155933828D01*
X121951483Y-156085822D01*
X121732632Y-156216996D01*
X121501977Y-156326088D01*
X121261740Y-156412046D01*
X121014235Y-156474043D01*
X120761845Y-156511481D01*
X120507000Y-156524001D01*
X118507000Y-156524001D01*
X118252155Y-156511481D01*
X117999765Y-156474043D01*
X117752260Y-156412046D01*
X117512023Y-156326088D01*
X117281368Y-156216996D01*
X117062517Y-156085822D01*
X116857577Y-155933828D01*
X116668522Y-155762479D01*
X116497173Y-155573424D01*
X116345179Y-155368484D01*
X116214005Y-155149633D01*
X116104913Y-154918978D01*
X116018955Y-154678741D01*
X115956958Y-154431236D01*
X115919520Y-154178846D01*
X115907000Y-153924001D01*
X115907000Y-153923999D01*
X115919520Y-153669154D01*
X115956958Y-153416764D01*
X116018955Y-153169259D01*
X116104913Y-152929022D01*
X116214005Y-152698367D01*
X116345179Y-152479516D01*
X116497173Y-152274576D01*
X116668522Y-152085521D01*
X116857577Y-151914172D01*
X117062517Y-151762178D01*
X117281368Y-151631004D01*
X117512023Y-151521912D01*
X117752260Y-151435954D01*
X117999765Y-151373957D01*
X118252155Y-151336519D01*
X118507000Y-151323999D01*
X120507000Y-151323999D01*
X120761845Y-151336519D01*
G37*
G04 #@! TD.AperFunction*
G04 #@! TA.AperFunction,WasherPad*
G36*
X55610845Y-151336519D02*
G01*
X55863235Y-151373957D01*
X56110740Y-151435954D01*
X56350977Y-151521912D01*
X56581632Y-151631004D01*
X56800483Y-151762178D01*
X57005423Y-151914172D01*
X57194478Y-152085521D01*
X57365827Y-152274576D01*
X57517821Y-152479516D01*
X57648995Y-152698367D01*
X57758087Y-152929022D01*
X57844045Y-153169259D01*
X57906042Y-153416764D01*
X57943480Y-153669154D01*
X57956000Y-153923999D01*
X57956000Y-153924001D01*
X57943480Y-154178846D01*
X57906042Y-154431236D01*
X57844045Y-154678741D01*
X57758087Y-154918978D01*
X57648995Y-155149633D01*
X57517821Y-155368484D01*
X57365827Y-155573424D01*
X57194478Y-155762479D01*
X57005423Y-155933828D01*
X56800483Y-156085822D01*
X56581632Y-156216996D01*
X56350977Y-156326088D01*
X56110740Y-156412046D01*
X55863235Y-156474043D01*
X55610845Y-156511481D01*
X55356000Y-156524001D01*
X53356000Y-156524001D01*
X53101155Y-156511481D01*
X52848765Y-156474043D01*
X52601260Y-156412046D01*
X52361023Y-156326088D01*
X52130368Y-156216996D01*
X51911517Y-156085822D01*
X51706577Y-155933828D01*
X51517522Y-155762479D01*
X51346173Y-155573424D01*
X51194179Y-155368484D01*
X51063005Y-155149633D01*
X50953913Y-154918978D01*
X50867955Y-154678741D01*
X50805958Y-154431236D01*
X50768520Y-154178846D01*
X50756000Y-153924001D01*
X50756000Y-153923999D01*
X50768520Y-153669154D01*
X50805958Y-153416764D01*
X50867955Y-153169259D01*
X50953913Y-152929022D01*
X51063005Y-152698367D01*
X51194179Y-152479516D01*
X51346173Y-152274576D01*
X51517522Y-152085521D01*
X51706577Y-151914172D01*
X51911517Y-151762178D01*
X52130368Y-151631004D01*
X52361023Y-151521912D01*
X52601260Y-151435954D01*
X52848765Y-151373957D01*
X53101155Y-151336519D01*
X53356000Y-151323999D01*
X55356000Y-151323999D01*
X55610845Y-151336519D01*
G37*
G04 #@! TD.AperFunction*
M02*
