M48
; DRILL file {KiCad (5.1.5)-2} date 12/24/2019 12:00:02 AM
; FORMAT={-:-/ absolute / inch / decimal}
; #@! TF.CreationDate,2019-12-24T00:00:02+01:00
; #@! TF.GenerationSoftware,Kicad,Pcbnew,(5.1.5)-2
; #@! TF.FileFunction,NonPlated,1,2,NPTH
FMAT,2
INCH
T1C0.1260
T2C0.1929
T3C0.2362
T4C0.2638
T5C0.2795
%
G90
G05
T2
X4.2981Y-4.6218
T3
X3.425Y-5.435
X2.075Y-5.43
X3.875Y-5.435
X4.7737Y-5.4348
X4.3231Y-5.4348
X2.0781Y-3.6839
X2.0773Y-2.7509
X4.7421Y-4.6285
X2.079Y-4.6276
X2.0781Y-1.8079
X2.975Y-5.43
X2.525Y-5.43
T4
X2.9636Y-2.7501
X2.9636Y-3.6805
X2.9644Y-1.8063
T5
X3.7983Y-1.7996
X4.6938Y-1.8004
X3.7983Y-3.673
X3.7983Y-4.6226
X4.6938Y-2.7459
X4.6938Y-3.6739
X3.7991Y-2.7467
X2.9628Y-4.6218
T1
G00X4.6656Y-6.06
M15
G01X4.7444Y-6.06
M16
G05
G00X2.1006Y-6.06
M15
G01X2.1794Y-6.06
M16
G05
G00X2.1006Y-1.235
M15
G01X2.1794Y-1.235
M16
G05
G00X4.6656Y-1.235
M15
G01X4.7444Y-1.235
M16
G05
T0
M30
